<?xml version="1.0" encoding="utf-8"?>
<!-- Generator: Adobe Illustrator 27.2.0, SVG Export Plug-In . SVG Version: 6.00 Build 0)  -->
<svg version="1.1" id="Capa_1" xmlns="http://www.w3.org/2000/svg" xmlns:xlink="http://www.w3.org/1999/xlink" x="0px" y="0px"
	 viewBox="0 0 35 35" style="enable-background:new 0 0 35 35;" xml:space="preserve">
<style type="text/css">
	.st0{fill:#4D3763;}
	.st1{fill:#F5B1C7;}
	.st2{fill:none;}
</style>
<path id="Trazado_25_00000088826141811729157050000000381215419362822568_" class="st1" d="M17.2,34.7L17.2,34.7
	c-9.4,0-17-7.6-17-17v0l0,0c0-9.4,7.6-17,17-17s17,7.6,17,17l0,0C34.2,27.1,26.6,34.7,17.2,34.7L17.2,34.7"/>
<path id="Trazado_31_00000022559470867863044970000007935177386396643496_" class="st0" d="M14.6,28.3h4.3V17.6h3l0.3-3.6h-3.3v-2
	c0-0.8,0.2-1.2,1-1.2h2.3V7.1h-3c-3.2,0-4.6,1.4-4.6,4.1V14h-2.2v3.6h2.2V28.3z"/>
</svg>
