<?xml version="1.0" encoding="utf-8"?>
<!-- Generator: Adobe Illustrator 27.2.0, SVG Export Plug-In . SVG Version: 6.00 Build 0)  -->
<svg version="1.1" id="Capa_1" xmlns="http://www.w3.org/2000/svg" xmlns:xlink="http://www.w3.org/1999/xlink" x="0px" y="0px"
	 viewBox="0 0 35 35" style="enable-background:new 0 0 35 35;" xml:space="preserve">
<style type="text/css">
	.st0{fill:#4D3763;}
	.st1{fill:#F5B1C7;}
	.st2{fill:none;}
</style>
<path id="Trazado_25_00000072987624758987858680000008778973854070218396_" class="st1" d="M17.5,34.7L17.5,34.7
	c-9.4,0-17-7.6-17-17v0l0,0c0-9.4,7.6-17,17-17s17,7.6,17,17l0,0C34.5,27.1,26.9,34.7,17.5,34.7L17.5,34.7"/>
<g id="Grupo_10_00000034779329287565124900000015002738673326725289_" transform="translate(-646.898 -1478.916)">
	<path id="Trazado_33_00000025429055683040033330000002467020679469603500_" class="st0" d="M664.4,1488.7c2.6,0,2.9,0,3.9,0.1
		c0.6,0,1.2,0.1,1.8,0.3c0.8,0.3,1.5,1,1.8,1.8c0.2,0.6,0.3,1.2,0.3,1.8c0,1,0.1,1.3,0.1,3.9s0,2.9-0.1,3.9c0,0.6-0.1,1.2-0.3,1.8
		c-0.3,0.8-1,1.5-1.8,1.8c-0.6,0.2-1.2,0.3-1.8,0.3c-1,0-1.3,0.1-3.9,0.1s-2.9,0-3.9-0.1c-0.6,0-1.2-0.1-1.8-0.3
		c-0.4-0.2-0.8-0.4-1.1-0.7c-0.3-0.3-0.6-0.7-0.7-1.1c-0.2-0.6-0.3-1.2-0.3-1.8c0-1-0.1-1.3-0.1-3.9s0-2.9,0.1-3.9
		c0-0.6,0.1-1.2,0.3-1.8c0.2-0.4,0.4-0.8,0.7-1.1c0.3-0.3,0.7-0.6,1.1-0.7c0.6-0.2,1.2-0.3,1.8-0.3
		C661.5,1488.7,661.8,1488.7,664.4,1488.7 M664.4,1487c-2.6,0-2.9,0-4,0.1c-0.8,0-1.6,0.2-2.3,0.4c-1.3,0.5-2.3,1.5-2.8,2.8
		c-0.3,0.7-0.4,1.5-0.4,2.3c0,1-0.1,1.4-0.1,4s0,2.9,0.1,4c0,0.8,0.2,1.6,0.4,2.3c0.5,1.3,1.5,2.3,2.8,2.8c0.7,0.3,1.5,0.4,2.3,0.4
		c1,0,1.4,0.1,4,0.1s2.9,0,4-0.1c0.8,0,1.6-0.2,2.3-0.4c1.3-0.5,2.3-1.5,2.8-2.8c0.3-0.7,0.4-1.5,0.4-2.3c0-1,0.1-1.4,0.1-4
		s0-2.9-0.1-4c0-0.8-0.2-1.6-0.4-2.3c-0.5-1.3-1.5-2.3-2.8-2.8c-0.7-0.3-1.5-0.4-2.3-0.4C667.3,1487,667,1487,664.4,1487"/>
	<path id="Trazado_34_00000041295460986544044390000017648141159561976193_" class="st0" d="M664.4,1491.7c-2.7,0-4.9,2.2-4.9,4.9
		s2.2,4.9,4.9,4.9c2.7,0,4.9-2.2,4.9-4.9c0,0,0,0,0,0C669.3,1493.9,667.1,1491.7,664.4,1491.7
		C664.4,1491.7,664.4,1491.7,664.4,1491.7 M664.4,1499.8c-1.8,0-3.2-1.4-3.2-3.2c0-1.8,1.4-3.2,3.2-3.2s3.2,1.4,3.2,3.2l0,0
		C667.6,1498.4,666.2,1499.8,664.4,1499.8"/>
	<path id="Trazado_35_00000019638675898765806510000016705916167112028290_" class="st0" d="M670.7,1491.5c0,0.6-0.5,1.2-1.2,1.2
		s-1.2-0.5-1.2-1.2c0-0.6,0.5-1.2,1.2-1.2l0,0C670.2,1490.3,670.7,1490.8,670.7,1491.5"/>
</g>
</svg>
