<?xml version="1.0" encoding="utf-8"?>
<!-- Generator: Adobe Illustrator 27.2.0, SVG Export Plug-In . SVG Version: 6.00 Build 0)  -->
<svg version="1.1" id="Capa_1" xmlns="http://www.w3.org/2000/svg" xmlns:xlink="http://www.w3.org/1999/xlink" x="0px" y="0px"
	 viewBox="0 0 25 25" style="enable-background:new 0 0 25 25;" xml:space="preserve">
<style type="text/css">
	.st0{fill:#4D3763;}
	.st1{fill:#F5B1C7;}
	.st2{fill:none;}
</style>
<g id="Grupo_10_00000016073636731935423670000009849985081263535262_" transform="translate(-646.898 -1478.916)">
	<path id="Trazado_33_00000005262519964140922100000008144160743523429306_" class="st0" d="M659.4,1484.4c2.3,0,2.5,0,3.4,0
		c0.5,0,1.1,0.1,1.6,0.3c0.7,0.3,1.3,0.9,1.6,1.6c0.2,0.5,0.3,1,0.3,1.6c0,0.9,0,1.2,0,3.4s0,2.5,0,3.4c0,0.5-0.1,1.1-0.3,1.6
		c-0.3,0.7-0.9,1.3-1.6,1.6c-0.5,0.2-1,0.3-1.6,0.3c-0.9,0-1.2,0-3.4,0s-2.5,0-3.4,0c-0.5,0-1.1-0.1-1.6-0.3c-0.4-0.1-0.7-0.4-1-0.6
		c-0.3-0.3-0.5-0.6-0.6-1c-0.2-0.5-0.3-1-0.3-1.6c0-0.9,0-1.2,0-3.4s0-2.5,0-3.4c0-0.5,0.1-1.1,0.3-1.6c0.1-0.4,0.4-0.7,0.6-1
		c0.3-0.3,0.6-0.5,1-0.6c0.5-0.2,1-0.3,1.6-0.3C656.9,1484.5,657.1,1484.4,659.4,1484.4 M659.4,1482.9c-2.3,0-2.6,0-3.5,0.1
		c-0.7,0-1.4,0.1-2.1,0.4c-1.1,0.4-2,1.3-2.5,2.5c-0.2,0.7-0.4,1.4-0.4,2.1c0,0.9,0,1.2,0,3.5s0,2.6,0,3.5c0,0.7,0.1,1.4,0.4,2.1
		c0.4,1.1,1.3,2,2.5,2.5c0.7,0.2,1.4,0.4,2.1,0.4c0.9,0,1.2,0.1,3.5,0.1s2.6,0,3.5-0.1c0.7,0,1.4-0.1,2.1-0.4c1.1-0.4,2-1.3,2.5-2.5
		c0.2-0.7,0.4-1.4,0.4-2.1c0-0.9,0-1.2,0-3.5s0-2.6,0-3.5c0-0.7-0.1-1.4-0.4-2.1c-0.4-1.1-1.3-2-2.5-2.5c-0.7-0.2-1.4-0.4-2.1-0.4
		C662,1482.9,661.7,1482.9,659.4,1482.9"/>
	<path id="Trazado_34_00000040567884745415772430000011874575244846031514_" class="st0" d="M659.4,1487c-2.4,0-4.4,2-4.4,4.4
		s2,4.4,4.4,4.4c2.4,0,4.4-2,4.4-4.4c0,0,0,0,0,0C663.8,1489,661.8,1487,659.4,1487C659.4,1487,659.4,1487,659.4,1487 M659.4,1494.2
		c-1.6,0-2.8-1.3-2.8-2.8c0-1.6,1.3-2.8,2.8-2.8c1.6,0,2.8,1.3,2.8,2.8l0,0C662.2,1493,661,1494.2,659.4,1494.2"/>
	<path id="Trazado_35_00000131344183484601463490000013231335040447845552_" class="st0" d="M665,1486.9c0,0.6-0.5,1-1,1s-1-0.5-1-1
		c0-0.6,0.5-1,1-1l0,0C664.5,1485.9,665,1486.3,665,1486.9"/>
</g>
<rect x="0" class="st2" width="25" height="25"/>
</svg>
