<?xml version="1.0" encoding="utf-8"?>
<!-- Generator: Adobe Illustrator 27.2.0, SVG Export Plug-In . SVG Version: 6.00 Build 0)  -->
<svg version="1.1" id="Capa_1" xmlns="http://www.w3.org/2000/svg" xmlns:xlink="http://www.w3.org/1999/xlink" x="0px" y="0px"
	 viewBox="0 0 25 25" style="enable-background:new 0 0 25 25;" xml:space="preserve">
<style type="text/css">
	.st0{fill:#4D3763;}
	.st1{fill:#F5B1C7;}
	.st2{fill:none;}
</style>
<path id="Trazado_29_00000003078707894048074840000009410684637543752587_" class="st0" d="M2,19.1c5.7,3.6,13.2,2,16.9-3.7
	c1.4-2.1,2-4.6,1.9-7.1C21.7,7.6,22.4,6.9,23,6c-0.8,0.3-1.6,0.6-2.5,0.7c0.9-0.5,1.6-1.4,1.9-2.4c-0.8,0.5-1.8,0.9-2.7,1
	c-1.6-1.7-4.3-1.8-6.1-0.2c-1.1,1-1.6,2.6-1.2,4.1C8.9,9.1,5.7,7.5,3.5,4.8c-1.1,2-0.6,4.5,1.3,5.7c-0.7,0-1.3-0.2-1.9-0.5
	c0,2.1,1.4,3.9,3.4,4.3c-0.6,0.2-1.3,0.2-1.9,0.1c0.6,1.7,2.2,2.9,4,3C6.6,18.7,4.3,19.3,2,19.1"/>
<rect x="0" class="st2" width="25" height="25"/>
</svg>
