<?xml version="1.0" encoding="utf-8"?>
<!-- Generator: Adobe Illustrator 27.2.0, SVG Export Plug-In . SVG Version: 6.00 Build 0)  -->
<svg version="1.1" id="Capa_1" xmlns="http://www.w3.org/2000/svg" xmlns:xlink="http://www.w3.org/1999/xlink" x="0px" y="0px"
	 viewBox="0 0 35 35" style="enable-background:new 0 0 35 35;" xml:space="preserve">
<style type="text/css">
	.st0{fill:#4D3763;}
	.st1{fill:#F5B1C7;}
	.st2{fill:none;}
</style>
<path id="Trazado_25_00000085248450833936553790000000166989290440395967_" class="st1" d="M17.6,34.9L17.6,34.9
	c-9.4,0-17-7.6-17-17v0l0,0c0-9.4,7.6-17,17-17s17,7.6,17,17l0,0C34.6,27.3,27,34.9,17.6,34.9L17.6,34.9"/>
<path id="Trazado_29_00000183968181279209154160000000222677659694961322_" class="st0" d="M8.3,23.8c5.1,3.2,11.8,1.8,15.1-3.3
	c1.2-1.9,1.8-4.1,1.7-6.4c0.8-0.5,1.4-1.2,1.9-2c-0.7,0.3-1.4,0.5-2.2,0.6c0.8-0.5,1.4-1.2,1.7-2.1c-0.8,0.4-1.6,0.8-2.4,0.9
	c-1.4-1.5-3.9-1.6-5.4-0.2c-1,0.9-1.4,2.3-1.1,3.7c-3.1-0.2-6-1.6-7.9-4c-1,1.8-0.5,4,1.2,5.1c-0.6,0-1.2-0.2-1.7-0.5
	c0,1.8,1.3,3.4,3.1,3.8c-0.6,0.2-1.2,0.2-1.7,0.1c0.5,1.6,1.9,2.6,3.6,2.7C12.4,23.4,10.3,24,8.3,23.8"/>
</svg>
