<?xml version="1.0" encoding="utf-8"?>
<!-- Generator: Adobe Illustrator 27.2.0, SVG Export Plug-In . SVG Version: 6.00 Build 0)  -->
<svg version="1.1" id="Capa_1" xmlns="http://www.w3.org/2000/svg" xmlns:xlink="http://www.w3.org/1999/xlink" x="0px" y="0px"
	 viewBox="0 0 25 25" style="enable-background:new 0 0 25 25;" xml:space="preserve">
<style type="text/css">
	.st0{fill:#4D3763;}
	.st1{fill:#F5B1C7;}
	.st2{fill:none;}
</style>
<g id="Grupo_9_00000147182734170693721520000011383355690664182160_" transform="translate(-607.093 -1480.25)">
	<path id="Trazado_26_00000163772449585567559060000016680796035797642427_" class="st0" d="M631.2,1486.9c-0.3-1-1.1-1.9-2.1-2.1
		c-1.9-0.5-9.4-0.5-9.4-0.5s-7.5,0-9.4,0.5c-1,0.3-1.9,1.1-2.1,2.1c-0.3,1.9-0.5,3.9-0.5,5.8c0,2,0.2,3.9,0.5,5.8
		c0.3,1,1.1,1.9,2.1,2.1c1.9,0.5,9.4,0.5,9.4,0.5s7.5,0,9.4-0.5c1-0.3,1.9-1.1,2.1-2.1c0.3-1.9,0.5-3.9,0.5-5.8
		C631.7,1490.8,631.5,1488.8,631.2,1486.9"/>
	<path id="Trazado_27_00000003816965139004353750000005450902746003356069_" class="st1" d="M617.1,1496.3v-7.2l6.3,3.6
		L617.1,1496.3z"/>
</g>
<rect x="0" class="st2" width="25" height="25"/>
</svg>
