<?xml version="1.0" encoding="utf-8"?>
<!-- Generator: Adobe Illustrator 27.2.0, SVG Export Plug-In . SVG Version: 6.00 Build 0)  -->
<svg version="1.1" id="Capa_1" xmlns="http://www.w3.org/2000/svg" xmlns:xlink="http://www.w3.org/1999/xlink" x="0px" y="0px"
	 viewBox="0 0 35 35" style="enable-background:new 0 0 35 35;" xml:space="preserve">
<style type="text/css">
	.st0{fill:#4D3763;}
	.st1{fill:#F5B1C7;}
	.st2{fill:none;}
</style>
<path id="Trazado_25_00000101081678107456021630000011298966211221535679_" class="st1" d="M17.6,34.7L17.6,34.7
	c-9.4,0-17-7.6-17-17v0l0,0c0-9.4,7.6-17,17-17s17,7.6,17,17l0,0C34.6,27.1,27,34.7,17.6,34.7L17.6,34.7"/>
<g id="Grupo_9_00000059296772809957746600000016145204304211848332_" transform="translate(-607.093 -1480.25)">
	<path id="Trazado_26_00000138566223713893140740000014019584736926950048_" class="st0" d="M636,1492.3c-0.3-1-1.1-1.8-2.1-2.1
		c-1.8-0.5-9.2-0.5-9.2-0.5s-7.3,0-9.2,0.5c-1,0.3-1.8,1.1-2.1,2.1c-0.3,1.9-0.5,3.8-0.5,5.7c0,1.9,0.2,3.8,0.5,5.7
		c0.3,1,1.1,1.8,2.1,2.1c1.8,0.5,9.2,0.5,9.2,0.5s7.3,0,9.2-0.5c1-0.3,1.8-1.1,2.1-2.1c0.3-1.9,0.5-3.8,0.5-5.7
		C636.5,1496,636.3,1494.1,636,1492.3"/>
	<path id="Trazado_27_00000124132807123725491860000005385042830702949254_" class="st1" d="M622.3,1501.4v-7l6.1,3.5L622.3,1501.4z
		"/>
</g>
</svg>
