<?xml version="1.0" encoding="utf-8"?>
<!-- Generator: Adobe Illustrator 27.2.0, SVG Export Plug-In . SVG Version: 6.00 Build 0)  -->
<svg version="1.1" id="Layer_1" xmlns="http://www.w3.org/2000/svg" xmlns:xlink="http://www.w3.org/1999/xlink" x="0px" y="0px"
	 viewBox="0 0 96.7 94.8" style="enable-background:new 0 0 96.7 94.8;" xml:space="preserve">
<style type="text/css">
	.st0{fill:#4D3762;}
</style>
<g>
	<g>
		<path class="st0" d="M7,84.8l3.5,0l0,10.3l-3.5,0L7,84.8z"/>
		<path class="st0" d="M18.7,89.6l3,0l0,4.4c-0.6,0.4-1.3,0.7-2.1,1c-0.8,0.2-1.6,0.3-2.4,0.3c-1.1,0-2.1-0.2-3-0.7
			c-0.9-0.5-1.6-1.1-2.1-1.9c-0.5-0.8-0.7-1.7-0.7-2.8c0-1,0.2-2,0.7-2.8c0.5-0.8,1.2-1.5,2.1-1.9c0.9-0.5,1.9-0.7,3-0.7
			c1,0,1.9,0.2,2.7,0.5c0.8,0.3,1.5,0.8,2,1.5l-2.2,2c-0.6-0.8-1.4-1.1-2.3-1.1c-0.8,0-1.4,0.2-1.8,0.7c-0.4,0.5-0.7,1.1-0.7,1.9
			c0,0.8,0.2,1.4,0.7,1.9c0.4,0.5,1,0.7,1.8,0.7c0.4,0,0.9-0.1,1.3-0.3L18.7,89.6z"/>
		<path class="st0" d="M24.1,94c-0.9-0.9-1.3-2-1.3-3.6l0-5.7l3.5,0l0,5.6c0,0.8,0.1,1.3,0.4,1.6c0.3,0.3,0.7,0.5,1.2,0.5
			c0.5,0,0.9-0.2,1.2-0.5c0.3-0.3,0.4-0.9,0.4-1.6l0-5.6l3.4,0l0,5.7c0,1.5-0.4,2.7-1.3,3.6c-0.9,0.9-2.1,1.3-3.7,1.3
			C26.3,95.3,25,94.8,24.1,94z"/>
		<path class="st0" d="M40.9,93.2l-3.9,0L36.3,95l-3.5,0l4.5-10.3l3.4,0L45.2,95l-3.6,0L40.9,93.2z M40,90.7l-1-2.6l-1,2.6L40,90.7z
			"/>
		<path class="st0" d="M45.5,84.7l3.5,0l0,7.6l4.6,0l0,2.7l-8.1,0L45.5,84.7z"/>
		<path class="st0" d="M54.2,84.7l5.1,0c1.1,0,2.2,0.2,3,0.6c0.9,0.4,1.6,1,2,1.8c0.5,0.8,0.7,1.7,0.7,2.7c0,1-0.2,2-0.7,2.7
			c-0.5,0.8-1.2,1.4-2,1.8c-0.9,0.4-1.9,0.6-3,0.6l-5.1,0L54.2,84.7z M59.2,92.2c0.7,0,1.3-0.2,1.8-0.6c0.4-0.4,0.7-1,0.7-1.8
			c0-0.8-0.2-1.4-0.7-1.8c-0.4-0.4-1-0.6-1.8-0.6l-1.5,0l0,4.9L59.2,92.2z"/>
		<path class="st0" d="M73,93.1l-3.9,0l-0.7,1.8l-3.5,0l4.5-10.3l3.4,0l4.5,10.3l-3.6,0L73,93.1z M72,90.6L71,88l-1,2.6L72,90.6z"/>
		<path class="st0" d="M77.5,84.6l5.1,0c1.1,0,2.2,0.2,3,0.6c0.9,0.4,1.6,1,2,1.8c0.5,0.8,0.7,1.7,0.7,2.7c0,1-0.2,2-0.7,2.7
			c-0.5,0.8-1.2,1.4-2,1.8c-0.9,0.4-1.9,0.6-3,0.6l-5.1,0L77.5,84.6z M82.4,92.2c0.7,0,1.3-0.2,1.8-0.6c0.4-0.4,0.7-1,0.7-1.8
			c0-0.8-0.2-1.4-0.7-1.8c-0.4-0.4-1-0.6-1.8-0.6l-1.5,0l0,4.9L82.4,92.2z"/>
	</g>
	<polygon class="st0" points="7,81.3 6.9,46.2 34.7,46.1 34.8,56.4 21.1,56.4 21.1,59.2 32.1,59.2 32.1,68.2 21.1,68.2 21.1,71.1 
		34.8,71 34.8,81.2 	"/>
	<path class="st0" d="M59.8,67.5c4.5,2.4,9.4,3.3,12.6,3.3c1,0,1.6-0.4,1.6-0.9c0-0.6-0.6-0.9-1.3-1.1C64,67.2,58,64.3,58,56.8
		c0-7.7,5.8-11.7,14.9-11.7c6.5,0,12.2,0.8,16.1,2.6l-1.8,11.6c-3.4-1.6-7.9-2.8-12.1-2.8c-1,0-1.5,0.4-1.5,0.8
		c0,0.4,0.6,0.9,1.4,1.1c9.7,1.6,14.6,4.5,14.6,11.6c0,8.3-6,12.2-16.1,12.2c-5.2,0-11.1-0.7-15.4-3.1L59.8,67.5z"/>
	<g>
		<g>
			<path class="st0" d="M93.5,31.8l-10.9-1.1c-0.4,0-0.7,0.2-0.7,0.6c0,0.4,0.2,0.7,0.6,0.7l10.9,1.1c0.1,0,0.2,0,0.2,0
				c0.3-0.1,0.5-0.3,0.5-0.6C94.1,32.2,93.9,31.8,93.5,31.8z"/>
			<path class="st0" d="M76.2,8.3c0.1,0,0.2-0.1,0.2-0.1l8.7-6.5c0.3-0.2,0.4-0.6,0.1-0.9c-0.2-0.3-0.6-0.4-0.9-0.1l-8.7,6.5
				c-0.3,0.2-0.4,0.6-0.1,0.9C75.7,8.3,76,8.4,76.2,8.3z"/>
			<path class="st0" d="M77.9,19.9c-1.4-5.2-3.2-10-4.9-13.6c-0.8-1.7-1.6-3.1-2.3-4c-0.3-0.4-1.3-1.7-2.5-1.4
				C68,1,67.9,1.1,67.7,1.2l0,0l-2.1,1.6c-0.3,0.2-0.5,0.6-0.7,1.1L46.8,19.8l-7.2,2L39.2,20c-0.2-0.6-0.7-0.9-1.3-0.7l-6,1.7
				c-0.6,0.2-0.9,0.7-0.7,1.3l0.5,1.8l-2.4,0.7c-0.7,0.2-1.1,1-1.2,2.4c0,0-0.1,0-0.1,0l-3.9,1.1c-2.1,0.6-0.6,6.1-0.4,6.7
				c0.2,0.6,1.8,6.1,3.8,5.6l3.9-1.1c0,0,0.1,0,0.1,0c0.8,1.2,1.5,1.7,2.3,1.5l2.2-0.6c0,0.1-0.1,0.1-0.1,0.2
				c-0.9,1.5-0.3,3.8-0.2,3.9l3.8,12.6l1,24.4l12.9,0l-3.6-21.6c0.3,0.1,0.6,0.1,0.9,0c0.1,0,0.2-0.1,0.4-0.2l3.4-2
				c0,0,0.1,0,0.1-0.1l0,0c0,0,0,0,0,0l1.8-1c0.7-0.4,1-1.4,0.5-2.1l-2.8-4.8c0.4-0.6,0.7-1.1,0.8-1.2c0.8-1.2,1.1-2.3,0.9-3.3
				c-0.2-0.9-0.7-1.5-1.1-1.8c0.1-0.7-0.1-1.3-0.5-1.8c-0.4-0.6-1.1-0.8-1.6-0.9c0-0.9-0.3-1.6-0.9-2.1c-0.6-0.5-1.3-0.7-1.8-0.8
				c0-0.4-0.1-0.8-0.2-1.1l1.9-0.5L75,40.2c0.4,0.4,0.9,0.6,1.2,0.6l0,0l2.5,0.3l0,0c0.2,0,0.4,0,0.6,0c1.1-0.3,1.3-1.9,1.4-2.5
				c0.1-1.1,0.1-2.7,0-4.6C80.4,30.1,79.4,25.1,77.9,19.9z M38,20.6l0.4,1.4l-0.8,0.2l-0.4-1.4L38,20.6z M35.9,21.2l0.4,1.4
				l-3.4,0.9l-0.4-1.4L35.9,21.2z M33.3,39.5c-0.1,0-0.6-0.4-1.2-1.5l0,0c-0.7-1.3-1.4-3-2-5c-0.5-2-0.9-3.8-0.9-5.3
				c0,0,0-0.1,0-0.1c0-1.2,0.2-1.6,0.3-1.7l13.2-3.7c-0.5,1.8-0.3,4.6,0.4,7.2c0.7,2.4,1.8,4.8,3,6.1c-0.3,0.1-0.5,0.2-0.6,0.2
				l-0.1,0.1l-0.4,0.4l-0.3,0.1l-0.1,0L33.3,39.5z M39.9,41.1l-0.2-0.3l-0.9-1.5l4.3-1.2l0.1,0.1l-2,2.1
				C40.5,41.1,40.1,41.2,39.9,41.1z M53.5,56.3l-3.4,2c-0.1,0-0.2,0-0.2-0.1L49.2,57c-0.2-1.9,0.7-2.7,0.7-2.8
				c0.6-0.5,1.1-1.1,1.7-1.7l2.1,3.5C53.6,56.2,53.6,56.3,53.5,56.3z M55.5,55c0,0.1,0,0.2-0.1,0.2l-0.6,0.4c0-0.1,0-0.1-0.1-0.2
				l-2.3-4c0.2-0.3,0.4-0.5,0.6-0.7L55.5,55z M50.6,39.3c0.4,0.3,0.5,0.9,0.5,1.7l0,0.7l0.7,0c0.2,0,0.9,0.1,1.2,0.5
				c0.2,0.3,0.3,0.6,0.1,1.1L53,43.8l0.4,0.2c0,0,0.7,0.4,0.8,1.3c0.1,0.7-0.1,1.4-0.7,2.3l0,0c0,0-2.3,3.8-4.4,5.6
				c-0.1,0.1-1.7,1.5-1,4.7l3.7,22l-10.1,0l-0.9-23.2l0-0.1l-3.9-12.8c-0.2-0.5-0.4-2,0.1-2.8c0.2-0.3,0.4-0.5,0.8-0.6L39,42
				l0.1,0.1c0.1,0,1.3,1,3-0.8l4.3-4.4c0.4-0.2,1.3-0.4,1.7-0.1c0.3,0.2,0.3,0.9,0.3,1.3l-0.1,0.8l0.8-0.1
				C49.1,38.8,50,38.7,50.6,39.3z M48.5,35.3c-0.3,0.1-1-0.2-1.8-1.4c-0.9-1.2-1.6-2.9-2.1-4.8c-0.5-1.9-0.8-3.8-0.6-5.2
				c0.1-1.4,0.5-2,0.8-2.1l1.4-0.4c-0.4,1.8-0.2,4.6,0.5,7.2c0.7,2.6,1.9,5.1,3.2,6.4L48.5,35.3z M52.1,34.7l-0.1,0l-0.1,0
				c0,0-0.1,0-0.1,0c0,0-0.1,0-0.1,0c0,0-0.1,0-0.1,0c0,0-0.1,0-0.1,0c0,0,0,0,0,0c0,0-0.1,0-0.1-0.1c0,0,0,0,0,0
				c-0.1,0-0.1-0.1-0.2-0.1c-0.3-0.2-0.6-0.6-1-1.2c-0.9-1.2-1.7-3-2.2-5c-0.5-2-0.8-3.9-0.7-5.4c0.1-1.3,0.3-1.8,0.7-2.2l0.1-0.1
				l0.1-0.1L64.6,6c-0.1,0.9,0,2.1,0.1,3.4c0.3,3.7,1.2,8.5,2.6,13.4c1.4,5,3,9.5,4.7,12.9c0.6,1.2,1.1,2.2,1.7,2.9L52.1,34.7z
				 M75.6,39c-0.5-0.6-1.4-1.7-2.4-3.9c-1.6-3.3-3.2-7.8-4.6-12.6c-1.4-4.9-2.3-9.6-2.6-13.2c-0.2-2.4-0.1-3.8,0.1-4.6l0.7-0.6
				c0,0.5,0,1.1,0,1.8c0,0.7,0.1,1.4,0.1,2.1c0.4,3.9,1.4,8.9,2.8,14.1c1.4,5.2,3.2,10,4.9,13.6c0.7,1.4,1.3,2.6,1.9,3.4L75.6,39z
				 M76.9,37.3c-0.4-0.6-0.8-1.4-1.2-2.3c-1-2.2-2.1-4.9-3.1-7.8c0,0,0,0,0.1,0c0.8-0.2,0.8-1.2,0.6-2.3c-0.1-1-0.4-2.2-0.8-3.5
				c-0.4-1.3-0.8-2.5-1.1-3.4c-0.4-1-0.9-1.9-1.7-1.6c0,0,0,0-0.1,0c-0.7-3.1-1.2-5.9-1.4-8.3c-0.1-1-0.1-1.9-0.2-2.6
				c0.4,0.7,1,1.6,1.6,2.8c1.6,3.3,3.2,7.8,4.6,12.6c1.4,4.9,2.3,9.6,2.6,13.2C76.9,35.5,76.9,36.5,76.9,37.3z M79.1,39.6l-0.6-0.1
				c0,0,0,0,0,0c-0.1-0.1-0.3-0.3-0.5-0.5c0.3-1.1,0.3-2.8,0.1-5c-0.3-3.7-1.2-8.5-2.6-13.4c-1.4-5-3-9.5-4.7-12.9
				c-1-2-1.9-3.4-2.7-4.2c0-0.3,0.1-0.5,0.2-0.7l0.5-0.4c0.2,0.1,0.6,0.4,1.1,1.1c0.5,0.7,1.2,1.8,2,3.6c1.6,3.4,3.3,8.1,4.7,13.2
				C78,25.3,79,30.2,79.4,34C79.8,37.9,79.4,39.2,79.1,39.6z"/>
			<path class="st0" d="M91.8,16c-0.1-0.4-0.5-0.6-0.8-0.5l-9.8,2.7c-0.4,0.1-0.6,0.5-0.5,0.8c0.1,0.4,0.5,0.6,0.8,0.5l9.8-2.7
				C91.7,16.8,91.9,16.4,91.8,16z"/>
		</g>
		<g>
			
				<rect x="49.5" y="14.5" transform="matrix(0.7742 -0.6329 0.6329 0.7742 3.7144 40.2862)" class="st0" width="17.7" height="0.9"/>
		</g>
		<g>
			
				<rect x="31.8" y="25.2" transform="matrix(0.9696 -0.2446 0.2446 0.9696 -5.0786 10.3688)" class="st0" width="14.8" height="0.9"/>
		</g>
	</g>
</g>
</svg>
